<svg width="700" height="700" viewBox="0 0 700 700" fill="none" xmlns="http://www.w3.org/2000/svg">
<rect width="700" height="700" rx="350" fill="#111111"/>
<g clip-path="url(#clip0_1_7)">
<path d="M436.013 342.292H246.594C242.998 342.292 240.6 345.286 240.6 348.28V491.965C240.6 533.874 274.767 568 316.727 568H367.079C409.039 568 443.206 533.874 443.206 491.965V348.28C442.606 344.687 439.609 342.292 436.013 342.292Z" fill="#F16A51"/>
<path d="M413.235 542.855C455.794 518.907 529.524 447.662 517.535 397.372C514.537 384.202 506.146 374.024 493.558 368.035C465.385 354.865 424.624 371.029 419.828 372.827L433.615 400.964C443.206 396.774 467.183 390.188 478.571 395.577C480.969 396.774 483.366 398.569 484.566 403.958C491.759 433.294 434.214 494.96 395.851 516.513L413.235 542.855Z" fill="#F16A51"/>
<path d="M354.401 314.504C354.712 315.126 354.712 314.193 355.023 313.572L355.644 311.086C355.955 309.532 356.265 307.667 356.576 306.113C356.887 302.695 357.197 298.965 357.197 295.236C356.887 287.778 355.333 280.009 352.537 272.861C349.43 265.713 345.081 259.808 340.421 255.147C337.935 252.661 335.45 250.796 332.965 248.932L326.751 244.581C319.606 239.608 313.082 233.082 308.422 226.556C306.247 223.138 304.694 219.719 304.072 216.922C303.451 214.125 303.451 212.261 303.762 211.018C304.072 210.396 304.072 209.775 304.694 208.842C305.315 207.91 305.626 206.356 306.558 205.113C308.111 202.316 310.286 199.83 312.46 197.344C317.121 192.993 322.713 189.885 328.305 189.264C333.897 188.331 339.8 189.575 345.702 192.371C348.498 193.925 351.605 195.479 354.401 197.965C355.955 199.208 357.197 200.141 358.751 201.694C360.304 203.248 361.547 204.492 363.411 204.802L369.314 205.735C382.051 207.91 393.546 196.412 395.41 179.63C396.342 170.618 394.167 161.605 389.818 155.079C387.954 152.282 385.468 150.107 382.983 148.242C380.498 146.378 377.702 144.824 375.216 142.959C369.935 139.541 364.032 137.054 358.129 135.19C346.324 131.15 332.965 130.839 320.538 134.879C308.111 138.919 296.305 147.31 286.985 159.119C282.325 165.334 278.286 171.861 275.18 179.63C273.626 183.359 272.383 187.71 271.141 192.371C269.898 197.344 269.277 202.938 268.966 208.221C268.656 219.409 271.452 229.664 275.18 237.744C278.908 245.824 283.568 251.729 288.228 256.701C297.548 266.645 307.49 272.239 317.431 276.59L321.159 278.144L323.023 278.765L324.266 279.076C326.13 279.698 327.683 280.319 329.237 281.252C332.343 282.805 335.45 284.67 337.935 287.778C340.421 290.575 342.906 294.304 344.77 298.655C345.702 300.83 346.634 303.316 347.256 306.113C347.566 307.356 347.877 308.91 348.498 310.153L349.12 312.329C349.43 313.261 349.43 313.572 350.052 316.058C350.673 318.233 352.226 319.476 354.09 318.544C354.09 319.166 354.712 316.679 354.401 314.504Z" fill="#454545"/>
</g>
<defs>
<clipPath id="clip0_1_7">
<rect width="281" height="436" fill="white" transform="translate(239 132)"/>
</clipPath>
</defs>
</svg>
